<svg width="3202" height="579" xmlns="http://www.w3.org/2000/svg" xmlns:xlink="http://www.w3.org/1999/xlink" xml:space="preserve" overflow="hidden"><g transform="translate(-4569 -839)"><g><g><g><path d="M4623.88 911.875 4953.12 911.875C4963.23 911.875 4971.42 920.064 4971.42 930.167L4971.42 1222.83C4971.42 1232.94 4963.23 1241.12 4953.12 1241.12L4623.88 1241.12C4613.77 1241.12 4605.58 1232.94 4605.58 1222.83L4605.58 930.167C4605.58 920.064 4613.77 911.875 4623.88 911.875ZM4870.16 1141.17 4934.83 1076.5 4870.16 1011.83 4844.29 1037.7 4883.1 1076.5 4844.29 1115.3 4870.16 1141.17ZM4693.9 1076.5 4732.71 1037.7 4706.84 1011.83 4642.17 1076.5 4706.84 1141.17 4732.71 1115.3 4693.9 1076.5ZM4774.68 1167.96 4841.25 985.042 4802.32 985.042 4735.75 1167.96 4774.68 1167.96Z" fill="#03989B"/></g></g></g><text fill="#FFFFFF" font-family="Poppins,Poppins_MSFontService,sans-serif" font-weight="700" font-size="275" transform="matrix(1 0 0 1 5010.59 1175)">VICTOR</text><text fill="#03989B" font-family="Poppins,Poppins_MSFontService,sans-serif" font-weight="700" font-size="275" transform="matrix(1 0 0 1 6060.18 1175)">BONIFÁCIO</text></g></svg>