<svg width="3815" height="636" xmlns="http://www.w3.org/2000/svg" xmlns:xlink="http://www.w3.org/1999/xlink" xml:space="preserve" overflow="hidden"><g transform="translate(-197 -382)"><path d="M222.511 429.697 675.19 429.697C689.09 429.697 700.35 440.964 700.35 454.864L700.35 857.532C700.35 871.442 689.09 882.697 675.19 882.697L222.511 882.697C208.611 882.697 197.35 871.442 197.35 857.532L197.35 454.864C197.35 440.964 208.611 429.697 222.511 429.697ZM561.126 745.178 650.042 656.2 561.126 567.223 525.557 602.817 578.918 656.2 525.557 709.584 561.126 745.178ZM318.783 656.2 372.143 602.817 336.574 567.223 247.658 656.2 336.574 745.178 372.143 709.584 318.783 656.2ZM429.849 782.038 521.377 530.366 467.851 530.366 376.323 782.038 429.849 782.038Z" fill="#03989B" fill-rule="evenodd"/><text fill="#FFFFFF" font-family="Montserrat ExtraBold,Montserrat ExtraBold_MSFontService,sans-serif" font-weight="800" font-size="303" transform="matrix(1 0 0 1 756.888 761)">VICTOR</text><text fill="#03989B" font-family="Montserrat ExtraBold,Montserrat ExtraBold_MSFontService,sans-serif" font-weight="800" font-size="303" transform="matrix(1 0 0 1 1983.5 761)">BONIFÁCIO</text></g></svg>