<svg width="3815" height="636" xmlns="http://www.w3.org/2000/svg" xmlns:xlink="http://www.w3.org/1999/xlink" xml:space="preserve" overflow="hidden"><g transform="translate(-197 -1027)"><path d="M222.511 1075.7 675.19 1075.7C689.09 1075.7 700.35 1086.94 700.35 1100.81L700.35 1502.59C700.35 1516.47 689.09 1527.7 675.19 1527.7L222.511 1527.7C208.611 1527.7 197.35 1516.47 197.35 1502.59L197.35 1100.81C197.35 1086.94 208.611 1075.7 222.511 1075.7ZM561.126 1390.48 650.042 1301.7 561.126 1212.92 525.557 1248.43 578.918 1301.7 525.557 1354.97 561.126 1390.48ZM318.783 1301.7 372.143 1248.43 336.574 1212.92 247.658 1301.7 336.574 1390.48 372.143 1354.97 318.783 1301.7ZM429.849 1427.26 521.377 1176.14 467.851 1176.14 376.323 1427.26 429.849 1427.26Z" fill="#4A68B1" fill-rule="evenodd"/><text fill="#FFFFFF" font-family="Montserrat ExtraBold,Montserrat ExtraBold_MSFontService,sans-serif" font-weight="800" font-size="303" transform="matrix(1 0 0 1 756.888 1406)">VICTOR</text><text fill="#4A68B1" font-family="Montserrat ExtraBold,Montserrat ExtraBold_MSFontService,sans-serif" font-weight="800" font-size="303" transform="matrix(1 0 0 1 1983.5 1406)">BONIFÁCIO</text></g></svg>