<svg width="182" height="182" xmlns="http://www.w3.org/2000/svg" xmlns:xlink="http://www.w3.org/1999/xlink" xml:space="preserve" overflow="hidden"><g transform="translate(-341 -410)"><path d="M363.75 432.75 500.25 432.75C504.438 432.75 507.833 436.145 507.833 440.333L507.833 561.667C507.833 565.855 504.438 569.25 500.25 569.25L363.75 569.25C359.562 569.25 356.167 565.855 356.167 561.667L356.167 440.333C356.167 436.145 359.562 432.75 363.75 432.75ZM465.856 527.811 492.667 501 465.856 474.189 455.131 484.913 471.218 501 455.131 517.087 465.856 527.811ZM392.782 501 408.869 484.913 398.144 474.189 371.333 501 398.144 527.811 408.869 517.087 392.782 501ZM426.269 538.917 453.87 463.083 437.731 463.083 410.129 538.917 426.269 538.917Z" fill="#029699"/></g></svg>