<?xml version="1.0" standalone="no"?>
<!DOCTYPE svg PUBLIC "-//W3C//DTD SVG 20010904//EN"
 "http://www.w3.org/TR/2001/REC-SVG-20010904/DTD/svg10.dtd">
<svg version="1.0" xmlns="http://www.w3.org/2000/svg"
 width="1280.000000pt" height="1280.000000pt" viewBox="0 0 1280.000000 1280.000000"
 preserveAspectRatio="xMidYMid meet">
<metadata>
Created by potrace 1.15, written by Peter Selinger 2001-2017
</metadata>
<g transform="translate(0.000000,1280.000000) scale(0.100000,-0.100000)"
fill="#000000" stroke="none">
<path d="M6011 11164 c0 -11 3 -14 6 -6 3 7 2 16 -1 19 -3 4 -6 -2 -5 -13z"/>
<path d="M6781 11164 c0 -11 3 -14 6 -6 3 7 2 16 -1 19 -3 4 -6 -2 -5 -13z"/>
<path d="M5561 10954 c0 -11 3 -14 6 -6 3 7 2 16 -1 19 -3 4 -6 -2 -5 -13z"/>
<path d="M7231 10954 c0 -11 3 -14 6 -6 3 7 2 16 -1 19 -3 4 -6 -2 -5 -13z"/>
<path d="M6033 10920 c0 -25 2 -35 4 -22 2 12 2 32 0 45 -2 12 -4 2 -4 -23z"/>
<path d="M6763 10920 c0 -25 2 -35 4 -22 2 12 2 32 0 45 -2 12 -4 2 -4 -23z"/>
<path d="M5572 10900 c0 -14 2 -19 5 -12 2 6 2 18 0 25 -3 6 -5 1 -5 -13z"/>
<path d="M7222 10900 c0 -14 2 -19 5 -12 2 6 2 18 0 25 -3 6 -5 1 -5 -13z"/>
<path d="M5581 10844 c0 -11 3 -14 6 -6 3 7 2 16 -1 19 -3 4 -6 -2 -5 -13z"/>
<path d="M6041 10822 c0 -24 4 -96 9 -160 13 -144 185 -2393 201 -2624 6 -91
9 -172 6 -180 -3 -7 -6 0 -6 16 -1 24 -4 28 -23 22 -13 -3 -33 -6 -45 -6 -12
0 -23 -7 -25 -17 -5 -21 -87 396 -223 1127 -88 472 -245 1307 -315 1675 -15
83 -28 141 -29 130 0 -11 8 -69 19 -129 11 -60 20 -115 20 -122 0 -7 -19 -15
-42 -19 -48 -8 -192 -40 -253 -57 -59 -16 -107 -30 -135 -39 -14 -4 -59 -18
-100 -30 -41 -12 -81 -27 -88 -33 -18 -13 -23 -4 -73 137 -23 65 -43 116 -45
114 -2 -2 34 -111 80 -243 830 -2354 920 -2613 912 -2621 -2 -3 -7 5 -11 16
-6 20 -6 20 -43 -1 -20 -12 -38 -23 -40 -24 -2 -1 1 -12 8 -23 6 -12 8 -21 5
-21 -8 0 -96 182 -730 1505 -512 1070 -584 1217 -585 1202 0 -4 13 -34 30 -67
51 -100 81 -173 67 -161 -10 8 -33 1 -93 -30 -110 -56 -178 -93 -184 -99 -3
-3 -25 -16 -50 -29 -25 -14 -91 -55 -147 -93 l-102 -68 -57 80 c-30 44 -58 80
-60 80 -2 0 27 -47 66 -105 39 -58 75 -103 80 -100 5 3 12 0 16 -6 4 -8 3 -9
-4 -5 -7 4 -12 4 -12 -1 1 -4 248 -368 550 -808 562 -819 1008 -1479 971
-1436 l-21 23 -34 -30 c-27 -24 -32 -33 -23 -44 7 -8 -10 9 -37 36 -27 28
-481 555 -1009 1171 -528 616 -971 1131 -985 1145 -26 26 10 -19 139 -174 l76
-90 -26 -21 c-87 -67 -359 -339 -426 -426 l-21 -26 -90 76 c-155 130 -200 165
-174 139 14 -14 500 -432 1080 -928 936 -802 1282 -1100 1315 -1134 6 -5 -1
-3 -15 6 -23 14 -25 13 -47 -19 l-23 -34 22 -20 c68 -60 -43 15 -1292 871
-1183 810 -1200 822 -1200 816 0 -2 36 -30 80 -61 71 -50 79 -59 68 -73 -24
-30 -28 -36 -76 -112 -27 -41 -59 -95 -73 -120 -13 -25 -26 -47 -29 -50 -6 -6
-43 -74 -99 -184 -31 -60 -38 -83 -30 -93 12 -13 -62 17 -153 63 -27 14 -52
24 -54 21 -5 -4 20 -17 1311 -634 971 -465 1467 -707 1429 -698 -18 5 -24 -1
-33 -26 -15 -44 -15 -46 15 -53 15 -4 24 -9 22 -12 -7 -6 -373 120 -1438 496
-487 171 -1031 363 -1209 426 -178 63 -326 113 -328 111 -2 -2 57 -26 131 -53
74 -27 131 -51 126 -54 -5 -3 -15 -26 -23 -50 -20 -60 -75 -245 -87 -292 -6
-21 -14 -55 -20 -75 -12 -45 -40 -188 -40 -203 0 -5 10 -10 22 -10 12 0 19 -2
16 -5 -3 -3 -58 4 -122 15 -65 12 -122 20 -127 18 -6 -2 58 -16 143 -32 84
-16 196 -37 248 -47 52 -10 424 -79 825 -154 1280 -239 1416 -265 1630 -308
116 -23 200 -43 188 -45 -18 -3 -23 -10 -23 -33 0 -16 -6 -29 -12 -30 -7 -1
-2 -5 12 -9 63 -20 4 -16 -1705 115 -605 46 -1152 89 -1217 95 -106 9 -224 12
-188 4 8 -1 83 -8 165 -15 94 -8 137 -15 115 -19 l-35 -5 0 -315 0 -315 35 -5
c22 -4 -21 -11 -115 -19 -82 -7 -157 -14 -165 -15 -36 -8 82 -5 188 4 195 18
2707 209 2850 217 90 6 129 5 120 -2 -7 -5 -12 -22 -10 -37 3 -22 9 -27 35
-30 39 -4 -270 -65 -1248 -247 -412 -77 -943 -177 -1180 -221 -236 -45 -455
-86 -485 -91 -136 -24 -243 -47 -225 -48 11 0 69 8 129 19 60 11 115 20 121
20 7 0 19 -38 29 -92 10 -51 22 -106 26 -123 5 -16 13 -48 19 -70 37 -145 100
-338 111 -345 5 -3 -52 -27 -126 -54 -74 -27 -133 -51 -131 -53 2 -2 111 35
243 81 2601 917 2798 986 2818 986 6 0 5 -4 -3 -9 -23 -15 3 -65 29 -58 11 3
20 3 20 1 0 -6 -99 -54 -1330 -644 -1491 -714 -1530 -733 -1526 -737 2 -3 22
5 44 16 80 41 154 71 143 58 -10 -13 29 -99 114 -253 32 -57 166 -275 175
-284 34 -34 33 -37 -50 -95 -44 -31 -80 -58 -80 -61 0 -2 41 23 90 56 55 37
88 65 84 72 -4 7 -3 8 5 4 6 -4 110 60 249 155 130 89 593 406 1027 704 760
520 1146 783 1173 799 7 4 11 4 10 -1 -2 -4 5 -19 14 -32 17 -23 18 -24 45 -7
52 31 -51 -58 -1279 -1111 -670 -574 -1218 -1046 -1218 -1049 0 -3 50 38 112
89 l112 94 21 -26 c70 -90 335 -356 426 -426 l26 -20 -98 -118 c-55 -64 -97
-117 -94 -117 3 0 422 487 932 1083 986 1151 1251 1457 1260 1457 3 0 -1 -8
-10 -18 -16 -17 -15 -20 7 -39 18 -16 27 -18 36 -10 10 9 11 9 5 -3 -15 -27
-249 -372 -920 -1350 -851 -1242 -897 -1310 -891 -1310 2 0 30 36 61 81 58 82
60 84 95 49 9 -9 227 -143 284 -175 154 -85 240 -124 253 -114 14 12 -16 -61
-68 -162 -17 -34 -28 -63 -26 -65 5 -5 36 60 692 1431 525 1096 749 1556 739
1517 -4 -18 -1 -25 15 -29 12 -3 21 -10 21 -17 1 -6 7 0 15 14 41 72 44 81
-1001 -2884 -46 -132 -83 -241 -80 -243 2 -2 16 31 31 74 15 43 36 101 46 129
l19 51 83 -27 c82 -28 197 -62 272 -81 22 -6 54 -14 70 -19 17 -4 72 -16 123
-26 54 -10 92 -22 92 -29 0 -6 -9 -61 -20 -121 -11 -60 -19 -118 -19 -129 1
-23 3 -14 209 1085 316 1688 350 1870 382 2030 18 91 34 155 36 144 4 -27 49
-39 56 -15 10 31 -4 -256 -29 -579 -80 -1054 -186 -2422 -195 -2522 -9 -106
-12 -224 -4 -188 1 8 8 83 15 165 8 94 15 137 19 115 l5 -35 315 0 315 0 5 35
c4 22 11 -21 19 -115 7 -82 14 -157 15 -165 8 -35 5 83 -4 184 -5 61 -21 260
-35 441 -14 182 -61 797 -105 1368 -44 572 -83 1096 -86 1166 l-7 128 32 -5
c27 -4 31 -1 32 19 2 50 32 -104 315 -1616 118 -632 229 -1222 245 -1310 52
-276 67 -351 68 -331 1 10 -10 81 -24 158 -14 77 -23 143 -20 146 3 3 5 -4 5
-16 0 -12 5 -22 10 -22 14 0 156 28 200 39 94 25 123 33 220 61 58 18 128 40
157 50 l52 18 20 -52 c10 -28 31 -86 46 -129 15 -43 29 -76 31 -74 2 2 -47
150 -110 328 -63 178 -239 677 -391 1109 -152 432 -320 907 -372 1055 -102
290 -223 646 -223 655 1 3 7 -6 15 -20 8 -14 14 -20 15 -14 0 7 9 14 21 17 16
4 19 11 15 29 -9 38 190 -371 673 -1379 692 -1448 734 -1533 738 -1529 3 2 -5
22 -16 44 -41 80 -71 154 -58 143 10 -8 33 -1 93 30 110 56 178 93 184 99 3 3
25 16 50 29 25 14 79 46 120 73 76 48 82 52 112 76 14 11 23 3 73 -68 31 -44
58 -80 61 -80 2 0 -23 41 -56 90 -34 50 -65 88 -69 85 -5 -2 -8 3 -7 13 0 9
-5 16 -12 14 -8 -1 -11 2 -7 8 3 5 -36 72 -88 147 -52 76 -359 525 -684 998
-764 1116 -973 1425 -893 1323 l21 -27 24 21 c23 20 24 23 8 40 -9 10 -14 18
-10 18 9 0 215 -238 1227 -1420 529 -619 974 -1136 988 -1150 26 -26 -9 19
-139 174 l-76 90 26 21 c87 67 359 339 426 426 l21 26 90 -76 c155 -130 200
-165 174 -139 -14 14 -515 445 -1115 958 -1189 1018 -1445 1239 -1445 1248 0
3 8 -2 18 -11 24 -22 31 -21 53 4 18 21 18 22 -4 41 -64 56 123 -70 1622
-1097 441 -302 809 -549 817 -549 7 1 11 -2 9 -7 -3 -4 42 -40 100 -79 58 -39
105 -68 105 -66 0 3 -36 30 -80 61 l-80 56 68 102 c38 56 79 122 93 147 13 25
26 47 29 50 6 6 43 74 99 184 31 60 38 83 30 93 -12 13 62 -17 153 -63 27 -14
52 -24 54 -21 5 4 12 1 -1421 687 -1321 633 -1455 698 -1455 703 0 3 9 3 20 0
26 -7 52 43 29 58 -57 36 -41 30 2815 -977 132 -46 241 -83 243 -81 2 2 -57
26 -131 53 -118 42 -133 50 -122 64 7 8 23 49 35 90 12 41 26 86 31 100 4 14
13 45 20 70 7 25 17 59 21 75 14 48 47 196 54 243 6 39 5 42 -16 42 -12 0 -20
3 -17 6 3 3 43 -2 88 -10 45 -9 92 -16 104 -15 32 1 -59 19 -1159 224 -1773
331 -1915 359 -1868 363 26 3 32 8 35 30 2 15 -3 32 -10 37 -9 7 30 8 120 2
143 -8 2655 -199 2850 -217 106 -9 224 -12 188 -4 -8 1 -82 8 -165 15 -94 8
-137 15 -115 19 l35 5 0 315 0 315 -35 5 c-22 4 21 11 115 19 83 7 157 14 165
15 36 8 -82 5 -188 -4 -390 -35 -2858 -220 -2910 -219 -33 1 -34 2 -12 9 14 4
19 8 13 9 -8 1 -13 14 -13 31 0 24 -4 30 -22 31 -16 1 -12 4 12 10 70 17 618
122 1590 304 547 102 1067 200 1155 216 214 40 244 47 219 48 -12 1 -59 -6
-104 -15 -45 -8 -85 -13 -88 -10 -3 3 5 6 17 6 21 0 22 3 16 43 -3 23 -10 56
-15 72 -4 17 -13 57 -20 90 -7 33 -16 71 -20 85 -4 14 -13 45 -20 70 -7 25
-20 70 -30 100 -10 30 -23 75 -30 100 -8 25 -19 52 -26 60 -11 13 0 20 81 50
52 18 93 36 91 38 -2 2 -132 -42 -287 -97 -156 -54 -720 -253 -1254 -441
-1066 -376 -1346 -472 -1353 -465 -2 2 7 7 22 11 30 7 30 9 15 53 -9 25 -15
31 -33 26 -38 -9 458 233 1439 703 1263 604 1326 634 1321 639 -2 2 -31 -9
-65 -26 -101 -51 -174 -82 -163 -68 8 10 5 25 -11 58 -66 129 -112 215 -117
219 -3 3 -16 25 -29 50 -14 25 -55 91 -93 147 l-68 102 80 56 c44 31 80 58 80
61 0 2 -47 -27 -105 -66 -58 -39 -103 -75 -100 -80 3 -6 0 -8 -7 -5 -7 2 -335
-216 -728 -486 -1327 -911 -1619 -1109 -1552 -1050 l23 20 -24 35 c-23 34 -24
35 -48 20 -38 -25 -32 -19 1195 1034 636 546 1156 994 1156 997 0 3 -53 -39
-117 -94 l-117 -99 -20 27 c-21 26 -140 155 -206 221 -109 110 -235 220 -247
216 -8 -3 32 48 87 114 56 66 99 120 96 120 -3 0 -434 -501 -959 -1112 -827
-965 -1099 -1279 -1046 -1205 11 16 8 22 -19 49 l-31 32 -21 -25 c-60 -69 57
104 937 1389 321 468 581 857 578 862 -4 6 -1 9 7 8 7 -2 12 5 12 14 -1 10 2
15 7 13 4 -3 35 35 69 85 33 49 58 90 56 90 -3 0 -30 -36 -61 -80 l-56 -80
-102 68 c-56 38 -122 79 -147 93 -25 13 -47 26 -50 29 -4 5 -90 51 -219 117
-33 16 -48 19 -58 11 -13 -10 17 65 58 144 11 22 19 42 16 44 -4 4 -33 -55
-682 -1411 -526 -1098 -593 -1235 -599 -1235 -3 0 -3 6 -1 13 3 7 -12 21 -35
33 -39 22 -39 22 -46 2 -3 -11 -8 -18 -10 -15 -7 7 109 344 456 1327 171 487
357 1013 411 1169 55 155 99 285 96 287 -2 2 -16 -31 -31 -74 -34 -97 -41
-109 -58 -96 -7 6 -33 16 -58 24 -25 7 -70 20 -100 30 -30 10 -75 23 -100 30
-25 7 -56 16 -70 20 -14 4 -52 13 -85 20 -33 7 -73 16 -90 20 -16 5 -49 12
-72 15 -40 6 -43 5 -43 -16 0 -12 -2 -20 -5 -17 -3 3 6 69 20 146 14 77 25
148 24 158 -1 20 -16 -56 -68 -331 -16 -88 -109 -583 -206 -1100 -214 -1146
-288 -1525 -293 -1502 -2 10 -13 17 -25 17 -12 0 -32 3 -44 6 -20 5 -23 2 -23
-22 0 -15 -3 -24 -6 -21 -4 3 -1 86 5 184 15 222 186 2466 201 2625 9 106 12
224 4 188 -1 -8 -8 -82 -15 -165 -8 -94 -15 -137 -19 -115 l-5 35 -315 0 -315
0 -5 -35 c-4 -22 -11 21 -19 115 -14 170 -18 199 -20 137z m-404 -314 c-3 -7
-5 -2 -5 12 0 14 2 19 5 13 2 -7 2 -19 0 -25z m-3157 -2718 c8 -5 11 -10 5
-10 -5 0 -17 5 -25 10 -8 5 -10 10 -5 10 6 0 17 -5 25 -10z m7860 0 c-8 -5
-19 -10 -25 -10 -5 0 -3 5 5 10 8 5 20 10 25 10 6 0 3 -5 -5 -10z m-8047
-2157 c-7 -2 -19 -2 -25 0 -7 3 -2 5 12 5 14 0 19 -2 13 -5z m3994 -365 c-3
-8 -6 -5 -6 6 -1 11 2 17 5 13 3 -3 4 -12 1 -19z m230 0 c-3 -8 -6 -5 -6 6 -1
11 2 17 5 13 3 -3 4 -12 1 -19z m-4037 -258 c-8 -5 -19 -10 -25 -10 -5 0 -3 5
5 10 8 5 20 10 25 10 6 0 3 -5 -5 -10z m7860 0 c8 -5 11 -10 5 -10 -5 0 -17 5
-25 10 -8 5 -10 10 -5 10 6 0 17 -5 25 -10z m-4703 -2742 c-3 -7 -5 -2 -5 12
0 14 2 19 5 13 2 -7 2 -19 0 -25z"/>
<path d="M7211 10844 c0 -11 3 -14 6 -6 3 7 2 16 -1 19 -3 4 -6 -2 -5 -13z"/>
<path d="M7891 10599 c-6 -18 -9 -34 -7 -36 2 -2 9 10 15 28 6 18 9 34 7 36
-2 2 -9 -10 -15 -28z"/>
<path d="M4431 10545 c0 -5 11 -30 24 -55 13 -25 24 -40 24 -35 0 6 -11 30
-24 55 -13 25 -24 41 -24 35z"/>
<path d="M8356 10533 c-6 -14 -5 -15 5 -6 7 7 10 15 7 18 -3 3 -9 -2 -12 -12z"/>
<path d="M8322 10465 c-30 -62 -27 -71 4 -12 14 27 24 51 22 53 -3 2 -14 -17
-26 -41z"/>
<path d="M8960 10115 c-17 -25 -29 -45 -26 -45 3 0 19 20 36 45 17 25 29 45
26 45 -3 0 -19 -20 -36 -45z"/>
<path d="M3850 10085 c17 -25 33 -45 36 -45 3 0 -9 20 -26 45 -17 25 -33 45
-36 45 -3 0 9 -20 26 -45z"/>
<path d="M3320 10016 c0 -2 8 -10 18 -17 15 -13 16 -12 3 4 -13 16 -21 21 -21
13z"/>
<path d="M3385 9940 c10 -11 20 -20 23 -20 3 0 -3 9 -13 20 -10 11 -20 20 -23
20 -3 0 3 -9 13 -20z"/>
<path d="M9399 9933 l-24 -28 28 24 c15 14 27 26 27 28 0 8 -8 1 -31 -24z"/>
<path d="M9339 9863 l-24 -28 28 24 c15 14 27 26 27 28 0 8 -8 1 -31 -24z"/>
<path d="M2780 9476 c0 -2 8 -10 18 -17 15 -13 16 -12 3 4 -13 16 -21 21 -21
13z"/>
<path d="M9999 9463 c-13 -16 -12 -17 4 -4 9 7 17 15 17 17 0 8 -8 3 -21 -13z"/>
<path d="M2860 9405 c13 -14 26 -25 28 -25 3 0 -5 11 -18 25 -13 14 -26 25
-28 25 -3 0 5 -11 18 -25z"/>
<path d="M9934 9408 l-19 -23 23 19 c21 18 27 26 19 26 -2 0 -12 -10 -23 -22z"/>
<path d="M9864 9348 l-19 -23 23 19 c21 18 27 26 19 26 -2 0 -12 -10 -23 -22z"/>
<path d="M2640 8996 c0 -3 27 -24 60 -46 33 -22 60 -38 60 -36 0 3 -27 24 -60
46 -33 22 -60 38 -60 36z"/>
<path d="M10106 8965 c-27 -18 -54 -39 -60 -46 -6 -6 17 7 52 30 34 23 62 44
62 46 0 7 -1 7 -54 -30z"/>
<path d="M2300 8340 c30 -16 60 -29 65 -29 6 0 -15 13 -45 29 -30 16 -59 29
-65 29 -5 0 15 -13 45 -29z"/>
<path d="M10480 8340 c-30 -16 -50 -29 -45 -29 6 0 35 13 65 29 30 16 51 29
45 29 -5 0 -35 -13 -65 -29z"/>
<path d="M10585 7895 c-25 -12 -26 -14 -5 -9 28 7 60 23 45 23 -5 0 -23 -6
-40 -14z"/>
<path d="M1838 7233 c7 -3 16 -2 19 1 4 3 -2 6 -13 5 -11 0 -14 -3 -6 -6z"/>
<path d="M1898 7223 c7 -3 16 -2 19 1 4 3 -2 6 -13 5 -11 0 -14 -3 -6 -6z"/>
<path d="M10888 7223 c6 -2 18 -2 25 0 6 3 1 5 -13 5 -14 0 -19 -2 -12 -5z"/>
<path d="M1948 7213 c7 -3 16 -2 19 1 4 3 -2 6 -13 5 -11 0 -14 -3 -6 -6z"/>
<path d="M10838 7213 c7 -3 16 -2 19 1 4 3 -2 6 -13 5 -11 0 -14 -3 -6 -6z"/>
<path d="M1993 7203 c9 -2 23 -2 30 0 6 3 -1 5 -18 5 -16 0 -22 -2 -12 -5z"/>
<path d="M10783 7203 c9 -2 23 -2 30 0 6 3 -1 5 -18 5 -16 0 -22 -2 -12 -5z"/>
<path d="M10728 7193 c6 -2 18 -2 25 0 6 3 1 5 -13 5 -14 0 -19 -2 -12 -5z"/>
<path d="M1628 6783 c7 -3 16 -2 19 1 4 3 -2 6 -13 5 -11 0 -14 -3 -6 -6z"/>
<path d="M11158 6783 c7 -3 16 -2 19 1 4 3 -2 6 -13 5 -11 0 -14 -3 -6 -6z"/>
<path d="M1728 6773 c6 -2 18 -2 25 0 6 3 1 5 -13 5 -14 0 -19 -2 -12 -5z"/>
<path d="M1858 6763 c12 -2 32 -2 45 0 12 2 2 4 -23 4 -25 0 -35 -2 -22 -4z"/>
<path d="M10898 6763 c12 -2 32 -2 45 0 12 2 2 4 -23 4 -25 0 -35 -2 -22 -4z"/>
<path d="M1858 6033 c12 -2 32 -2 45 0 12 2 2 4 -23 4 -25 0 -35 -2 -22 -4z"/>
<path d="M10898 6033 c12 -2 32 -2 45 0 12 2 2 4 -23 4 -25 0 -35 -2 -22 -4z"/>
<path d="M1728 6023 c7 -3 16 -2 19 1 4 3 -2 6 -13 5 -11 0 -14 -3 -6 -6z"/>
<path d="M1628 6013 c7 -3 16 -2 19 1 4 3 -2 6 -13 5 -11 0 -14 -3 -6 -6z"/>
<path d="M11158 6013 c7 -3 16 -2 19 1 4 3 -2 6 -13 5 -11 0 -14 -3 -6 -6z"/>
<path d="M10728 5603 c6 -2 18 -2 25 0 6 3 1 5 -13 5 -14 0 -19 -2 -12 -5z"/>
<path d="M10783 5593 c9 -2 23 -2 30 0 6 3 -1 5 -18 5 -16 0 -22 -2 -12 -5z"/>
<path d="M1948 5583 c7 -3 16 -2 19 1 4 3 -2 6 -13 5 -11 0 -14 -3 -6 -6z"/>
<path d="M10838 5583 c7 -3 16 -2 19 1 4 3 -2 6 -13 5 -11 0 -14 -3 -6 -6z"/>
<path d="M1898 5573 c7 -3 16 -2 19 1 4 3 -2 6 -13 5 -11 0 -14 -3 -6 -6z"/>
<path d="M10888 5573 c6 -2 18 -2 25 0 6 3 1 5 -13 5 -14 0 -19 -2 -12 -5z"/>
<path d="M1838 5563 c7 -3 16 -2 19 1 4 3 -2 6 -13 5 -11 0 -14 -3 -6 -6z"/>
<path d="M2300 4460 c-30 -16 -50 -29 -45 -29 6 0 35 13 65 29 30 16 51 29 45
29 -5 0 -35 -13 -65 -29z"/>
<path d="M10480 4460 c30 -16 60 -29 65 -29 6 0 -15 13 -45 29 -30 16 -59 29
-65 29 -5 0 15 -13 45 -29z"/>
<path d="M2706 3855 c-27 -18 -54 -39 -60 -46 -6 -6 17 7 52 30 34 23 62 44
62 46 0 7 -1 7 -54 -30z"/>
<path d="M10040 3886 c0 -3 27 -24 60 -46 33 -22 60 -38 60 -36 0 3 -27 24
-60 46 -33 22 -60 38 -60 36z"/>
<path d="M2929 3453 l-24 -28 28 24 c25 23 32 31 24 31 -2 0 -14 -12 -28 -27z"/>
<path d="M2859 3393 l-24 -28 28 24 c25 23 32 31 24 31 -2 0 -14 -12 -28 -27z"/>
<path d="M9935 3390 c10 -11 20 -20 23 -20 3 0 -3 9 -13 20 -10 11 -20 20 -23
20 -3 0 3 -9 13 -20z"/>
<path d="M9990 3346 c0 -2 8 -10 18 -17 15 -13 16 -12 3 4 -13 16 -21 21 -21
13z"/>
<path d="M3444 2928 l-19 -23 23 19 c12 11 22 21 22 23 0 8 -8 2 -26 -19z"/>
<path d="M9400 2865 c13 -14 26 -25 28 -25 3 0 -5 11 -18 25 -13 14 -26 25
-28 25 -3 0 5 -11 18 -25z"/>
<path d="M3384 2858 l-19 -23 23 19 c12 11 22 21 22 23 0 8 -8 2 -26 -19z"/>
<path d="M3329 2793 c-13 -16 -12 -17 4 -4 9 7 17 15 17 17 0 8 -8 3 -21 -13z"/>
<path d="M3850 2715 c-17 -25 -29 -45 -26 -45 3 0 19 20 36 45 17 25 29 45 26
45 -3 0 -19 -20 -36 -45z"/>
<path d="M8950 2700 c22 -33 43 -60 46 -60 2 0 -14 27 -36 60 -22 33 -43 60
-46 60 -2 0 14 -27 36 -60z"/>
<path d="M8301 2385 c0 -5 11 -30 24 -55 13 -25 24 -40 24 -35 0 6 -11 30 -24
55 -13 25 -24 41 -24 35z"/>
<path d="M4452 2305 c-30 -62 -27 -71 4 -12 14 27 24 51 22 53 -3 2 -14 -17
-26 -41z"/>
<path d="M8356 2267 c3 -10 9 -15 12 -12 3 3 0 11 -7 18 -10 9 -11 8 -5 -6z"/>
<path d="M5581 1954 c0 -11 3 -14 6 -6 3 7 2 16 -1 19 -3 4 -6 -2 -5 -13z"/>
<path d="M7211 1954 c0 -11 3 -14 6 -6 3 7 2 16 -1 19 -3 4 -6 -2 -5 -13z"/>
<path d="M5572 1900 c0 -14 2 -19 5 -12 2 6 2 18 0 25 -3 6 -5 1 -5 -13z"/>
<path d="M6033 1880 c0 -25 2 -35 4 -22 2 12 2 32 0 45 -2 12 -4 2 -4 -23z"/>
<path d="M6763 1880 c0 -25 2 -35 4 -22 2 12 2 32 0 45 -2 12 -4 2 -4 -23z"/>
<path d="M7222 1900 c0 -14 2 -19 5 -12 2 6 2 18 0 25 -3 6 -5 1 -5 -13z"/>
<path d="M5561 1844 c0 -11 3 -14 6 -6 3 7 2 16 -1 19 -3 4 -6 -2 -5 -13z"/>
<path d="M7231 1844 c0 -11 3 -14 6 -6 3 7 2 16 -1 19 -3 4 -6 -2 -5 -13z"/>
<path d="M6021 1734 c0 -11 3 -14 6 -6 3 7 2 16 -1 19 -3 4 -6 -2 -5 -13z"/>
<path d="M6011 1634 c0 -11 3 -14 6 -6 3 7 2 16 -1 19 -3 4 -6 -2 -5 -13z"/>
<path d="M6781 1634 c0 -11 3 -14 6 -6 3 7 2 16 -1 19 -3 4 -6 -2 -5 -13z"/>
</g>
</svg>
