<?xml version="1.0" standalone="no"?>
<!DOCTYPE svg PUBLIC "-//W3C//DTD SVG 20010904//EN"
 "http://www.w3.org/TR/2001/REC-SVG-20010904/DTD/svg10.dtd">
<svg version="1.0" xmlns="http://www.w3.org/2000/svg"
 width="1280.000000pt" height="1058.000000pt" viewBox="0 0 1280.000000 1058.000000"
 preserveAspectRatio="xMidYMid meet">
<metadata>
Created by potrace 1.15, written by Peter Selinger 2001-2017
</metadata>
<g transform="translate(0.000000,1058.000000) scale(0.100000,-0.100000)"
fill="#0059ad" stroke="none">
<path d="M5327 10569 c-302 -45 -533 -191 -646 -409 -77 -148 -74 -115 -78
-872 l-4 -678 -860 0 -859 0 0 -4305 0 -4305 3530 0 3530 0 0 4305 0 4305
-869 0 -870 0 -4 678 c-3 613 -5 683 -21 737 -77 261 -275 438 -581 522 l-100
28 -1055 1 c-580 1 -1081 -2 -1113 -7z"/>
<path d="M1200 8620 c-299 -23 -570 -146 -794 -361 -192 -184 -323 -419 -383
-691 -17 -79 -18 -225 -18 -3253 0 -3022 1 -3174 18 -3260 103 -510 456 -881
950 -1000 150 -36 297 -45 805 -45 l452 0 0 4310 0 4310 -467 -1 c-258 -1
-511 -5 -563 -9z"/>
<path d="M10570 4321 l0 -4311 453 0 c248 0 508 5 576 10 608 47 1059 443
1178 1035 17 86 18 238 18 3260 0 3028 -1 3174 -18 3253 -104 471 -432 842
-876 991 -179 60 -206 62 -793 68 l-538 5 0 -4311z"/>
</g>
</svg>
